<svg width="410" height="425" viewBox="0 0 410 425" fill="none" xmlns="http://www.w3.org/2000/svg">
<g clip-path="url(#clip0_153_2)">
<path d="M0.000488281 130C0.000488281 58.203 58.2035 0 130 0H320C369.706 0 410 40.2944 410 90V295C410 366.797 351.798 425 280 425H20.0005C8.9548 425 0.000488281 416.046 0.000488281 405V130Z" fill="#0053F0"/>
<path fill-rule="evenodd" clip-rule="evenodd" d="M346.682 219.687L327.838 258.311L367.326 275.08L325.415 284.497L336.854 325.862L303.433 298.981L278.21 333.788L278.452 290.866L235.555 292.908L269.271 266.245L241.009 233.983L282.818 243.673L290.465 201.403L308.879 240.152L346.672 219.678L346.682 219.687Z" fill="white"/>
<path d="M163.692 170.301L151.659 122.578L199.845 132.595C201.225 132.95 202.594 132.309 202.893 131.153L204.242 125.971C204.541 124.815 203.665 123.584 202.284 123.228L154.794 108.333L187.425 70.7488C188.415 69.7162 188.516 68.2131 187.653 67.3857L183.785 63.6765C182.922 62.8491 181.424 63.0136 180.434 64.0462L144.255 98.2282L127.372 51.401C126.958 50.0369 125.692 49.2133 124.55 49.5603L119.429 51.1263C118.286 51.4733 117.698 52.8632 118.116 54.2319L130.149 101.954L81.9634 91.9379C80.5831 91.5822 79.2192 92.2284 78.9156 93.3795L77.5663 98.5617C77.2676 99.7175 78.1438 100.948 79.524 101.304L127.015 116.199L94.3836 153.784C93.3935 154.816 93.2921 156.319 94.155 157.147L98.0236 160.856C98.8865 161.683 100.384 161.519 101.374 160.486L137.554 126.304L154.432 173.127C154.845 174.491 156.112 175.314 157.254 174.967L162.375 173.401C163.517 173.054 164.105 171.665 163.687 170.296L163.692 170.301Z" fill="white"/>
<path fill-rule="evenodd" clip-rule="evenodd" d="M161.293 318.937C157.902 310.159 152.727 288.133 170.521 260.384C176.071 252.316 193.911 233.738 194.72 232.895C194.85 232.778 194.976 232.666 195.107 232.55L282.56 142.873L290.987 179.247L297.747 143.143L338.49 170.8L309.214 131.183L345.072 122.839L308.376 115.948L352.918 58.187L297.09 105.118L288.663 68.7436L281.903 104.848L241.09 77.2632L270.366 116.881L234.578 125.152L271.274 132.043L184.587 222.454C184.587 222.454 167.621 241.264 157.991 248.668C131.742 267.379 109.172 263.65 97.5117 259.411C85.3955 254.27 71.5239 245.389 53.5176 232.795C99.1926 292.593 99.471 305.83 56.3498 367.495C116.147 321.82 129.385 321.541 191.049 364.662C176.616 345.771 166.721 331.529 161.293 318.937Z" fill="white"/>
</g>
<defs>
<clipPath id="clip0_153_2">
<rect width="410" height="425" fill="white"/>
</clipPath>
</defs>
</svg>
